Coordinates
version=1
nRows=10
nColumns=46
inDegrees=yes

Units are S.I. units (second, meters, Newtons, ...)
Angles are in degrees.

endheader
time	pelvis_tilt	pelvis_list	pelvis_rotation	pelvis_tx	pelvis_ty	pelvis_tz	bb_angle	bb_tx	bb_ty	bb_tz	hip_flexion_r	hip_adduction_r	hip_rotation_r	knee_angle_r	knee_angle_r_beta	ankle_angle_r	subtalar_angle_r	mtp_angle_r	crank_angle_r	hip_flexion_l	hip_adduction_l	hip_rotation_l	knee_angle_l	knee_angle_l_beta	ankle_angle_l	subtalar_angle_l	mtp_angle_l	crank_angle_l	lumbar_extension	lumbar_bending	lumbar_rotation	arm_flex_r	arm_add_r	arm_rot_r	elbow_flex_r	pro_sup_r	wrist_flex_r	wrist_dev_r	arm_flex_l	arm_add_l	arm_rot_l	elbow_flex_l	pro_sup_l	wrist_flex_l	wrist_dev_l
      0.00500000	     -8.57186559	      0.81820103	     -0.18276289	      0.11727110	      1.14765014	     -0.24839599	      0.00000000	      0.50000000	      0.00000000	      0.25000000	     46.53379561	     -7.06398061	     -4.53509558	     71.31556544	      1.24469142	      7.62610581	     -4.12908702	      0.00000000	      0.00000000	     78.24112252	     -5.53215494	      0.71413174	     91.39547299	      1.59515193	     15.47943533	     -0.87686671	      0.00000000	      0.00000000	    -56.60963554	      0.08938007	      2.11782456	     89.79245697	     -1.43609756	     19.25620111	     31.93884734	     20.21422856	      0.00000000	      0.00000000	     89.75366478	      2.95602275	     20.05977880	     31.04181330	     19.92500414	      0.00000000	      0.00000000
      0.01000000	     -8.68911877	      0.88533782	     -0.16696015	      0.11721869	      1.14736065	     -0.24845461	      0.00000000	      0.50000000	      0.00000000	      0.25000000	     46.64449220	     -7.12128203	     -4.49011207	     71.22252812	      1.24306762	      7.55611923	     -4.14962617	      0.00000000	      0.00000000	     78.44076209	     -5.49352885	      0.66243322	     91.52011725	      1.59732738	     15.42763959	     -0.94909825	      0.00000000	      0.00000000	    -56.42608395	      0.02828787	      2.04392748	     89.79252683	     -1.27500669	     18.79217132	     31.44136922	     21.48987758	      0.00000000	      0.00000000	     89.75734432	      3.15223957	     19.66914355	     30.48664052	     21.19511443	      0.00000000	      0.00000000
      0.01500000	     -8.82905825	      0.91792522	     -0.18334217	      0.11715917	      1.14697916	     -0.24840850	      0.00000000	      0.50000000	      0.00000000	      0.25000000	     46.78604985	     -7.11868981	     -4.44695928	     71.13957745	      1.24161985	      7.52541728	     -4.16145665	      0.00000000	      0.00000000	     78.69028703	     -5.50974073	      0.64556819	     91.67401715	      1.60001344	     15.35717674	     -0.97323484	      0.00000000	      0.00000000	    -56.20968861	     -0.03897688	      1.96900661	     89.79387576	     -1.63902921	     20.61545459	     31.06306698	     21.43782328	      0.00000000	      0.00000000	     89.75941768	      2.70523641	     21.47824196	     30.26669737	     21.04315942	      0.00000000	      0.00000000
      0.02000000	     -8.81289310	      0.90640024	     -0.09576108	      0.11697398	      1.14703022	     -0.24843551	      0.00000000	      0.50000000	      0.00000000	      0.25000000	     46.70936989	     -7.15272978	     -4.52306153	     71.00057766	      1.23919385	      7.48162927	     -4.24166476	      0.00000000	      0.00000000	     78.79183018	     -5.46936118	      0.67882185	     91.80396005	      1.60228137	     15.24833473	     -0.91461395	      0.00000000	      0.00000000	    -56.23942773	     -0.00413728	      1.93225934	     89.79379557	     -1.42625885	     19.62410750	     30.78348775	     23.00075114	      0.00000000	      0.00000000	     89.75903108	      2.99623315	     20.61909929	     29.97860228	     22.61676528	      0.00000000	      0.00000000
      0.02500000	     -8.84011424	      0.87780552	     -0.07039330	      0.11694129	      1.14694962	     -0.24844181	      0.00000000	      0.50000000	      0.00000000	      0.25000000	     46.66601874	     -7.11637258	     -4.54036264	     70.81646717	      1.23598052	      7.43558852	     -4.27669648	      0.00000000	      0.00000000	     78.90182659	     -5.45461089	      0.74858674	     91.94177298	      1.60468666	     15.26879664	     -0.82893765	      0.00000000	      0.00000000	    -56.24830584	      0.04387924	      1.95048031	     89.79218639	     -1.15870757	     18.41587714	     30.60526238	     24.88916514	      0.00000000	      0.00000000	     89.75929439	      3.24210116	     19.52778870	     29.80991566	     24.58221403	      0.00000000	      0.00000000
      0.03000000	     -8.80243675	      0.88229467	     -0.04613042	      0.11695799	      1.14703313	     -0.24845134	      0.00000000	      0.50000000	      0.00000000	      0.25000000	     46.55161501	     -7.14188306	     -4.60457884	     70.65480148	      1.23315892	      7.41969201	     -4.24949430	      0.00000000	      0.00000000	     78.95914875	     -5.46953065	      0.72947479	     92.10069447	      1.60746036	     15.25447658	     -0.83233444	      0.00000000	      0.00000000	    -56.24349240	      0.00446153	      1.89455806	     89.79497563	     -1.78876088	     21.04847059	     30.70117564	     22.92128469	      0.00000000	      0.00000000	     89.76125382	      2.74860367	     21.86735762	     30.04366900	     22.46044749	      0.00000000	      0.00000000
      0.03500000	     -8.63966619	      0.83760242	      0.01804007	      0.11694800	      1.14751630	     -0.24856242	      0.00000000	      0.50000000	      0.00000000	      0.25000000	     46.24201365	     -7.13820777	     -4.70485438	     70.40996969	      1.22888580	      7.45291731	     -4.25164242	      0.00000000	      0.00000000	     78.84887535	     -5.44429918	      0.76679365	     92.21820850	      1.60951137	     15.29937789	     -0.85181334	      0.00000000	      0.00000000	    -56.51148150	      0.09439762	      1.90109617	     89.79296166	     -1.68768404	     20.08887797	     30.95206971	     24.07300141	      0.00000000	      0.00000000	     89.75948561	      2.88911849	     20.91400874	     30.21310064	     23.61839967	      0.00000000	      0.00000000
      0.04000000	     -8.79541459	      0.88500670	     -0.02060060	      0.11689859	      1.14710154	     -0.24846100	      0.00000000	      0.50000000	      0.00000000	      0.25000000	     46.40547439	     -7.13228136	     -4.63439433	     70.32355594	      1.22737759	      7.40761958	     -4.23839798	      0.00000000	      0.00000000	     79.11833123	     -5.48715938	      0.73639994	     92.38789636	      1.61247298	     15.19390351	     -0.77727808	      0.00000000	      0.00000000	    -56.25282857	      0.01093121	      1.86207075	     89.79522835	     -1.76611677	     21.05377430	     30.64259031	     23.01546515	      0.00000000	      0.00000000	     89.76173002	      2.74699555	     21.76298347	     30.03613503	     22.49421128	      0.00000000	      0.00000000
      0.04500000	     -8.80068607	      0.88016387	      0.01308775	      0.11682156	      1.14709062	     -0.24853497	      0.00000000	      0.50000000	      0.00000000	      0.25000000	     46.34688203	     -7.14450299	     -4.67726294	     70.16230709	      1.22456327	      7.35980784	     -4.25896517	      0.00000000	      0.00000000	     79.21780848	     -5.45952638	      0.76336724	     92.53780988	      1.61508947	     15.21352866	     -0.76293008	      0.00000000	      0.00000000	    -56.26284448	      0.02147973	      1.85113972	     89.79338745	     -1.59843208	     20.10132398	     30.61258489	     23.86974471	      0.00000000	      0.00000000	     89.76213758	      2.99766863	     20.82259622	     29.95065294	     23.35203047	      0.00000000	      0.00000000
      0.05000000	     -8.72131110	      0.84541227	      0.06274433	      0.11679492	      1.14731372	     -0.24864342	      0.00000000	      0.50000000	      0.00000000	      0.25000000	     46.15621341	     -7.15348325	     -4.77594047	     69.95231584	      1.22089823	      7.35431505	     -4.24237318	      0.00000000	      0.00000000	     79.21875495	     -5.43651505	      0.83417630	     92.69422720	      1.61781946	     15.21835182	     -0.65274336	      0.00000000	      0.00000000	    -56.37404753	      0.09168825	      1.91510892	     89.79202989	     -1.53101759	     19.38986682	     30.67364806	     24.75325391	      0.00000000	      0.00000000	     89.76121211	      3.05829626	     19.99559733	     29.99686548	     24.24944433	      0.00000000	      0.00000000
